<?xml version="1.0" standalone="no"?>
<!DOCTYPE svg PUBLIC "-//W3C//DTD SVG 20010904//EN"
 "http://www.w3.org/TR/2001/REC-SVG-20010904/DTD/svg10.dtd">
<svg version="1.0" xmlns="http://www.w3.org/2000/svg"
 width="6692.000000pt" height="392.000000pt" viewBox="0 0 6692.000000 392.000000"
 preserveAspectRatio="xMidYMid meet">

<g transform="translate(0.000000,392.000000) scale(0.100000,-0.100000)"
fill="#000000" stroke="none">
<path d="M60 1970 l0 -1900 9990 0 9990 0 0 1900 0 1900 -9990 0 -9990 0 0
-1900z m14118 1834 l22 -6 0 -909 0 -909 -125 0 -125 0 0 672 0 673 -670 -670
c-368 -368 -670 -673 -670 -677 0 -4 349 -356 775 -783 426 -427 775 -779 775
-783 0 -4 -38 -45 -85 -92 l-85 -84 -782 782 -783 783 -670 -673 -670 -673
673 -3 672 -2 0 -120 0 -120 -909 0 c-715 0 -911 3 -918 12 -5 7 -16 28 -23
46 l-13 34 1744 1745 c959 959 1753 1748 1764 1753 24 10 71 12 103 4z m-7161
-54 l543 0 0 -1770 0 -1770 -1775 0 -1775 0 0 1770 0 1769 123 4 c67 3 621 3
1231 1 610 -2 1354 -4 1653 -4z m-3227 -950 l0 -950 -950 0 -950 0 0 480 0
480 125 0 125 0 0 -355 0 -355 700 0 700 0 0 705 0 705 -733 0 -732 0 -793
-793 -792 -792 0 -645 0 -645 303 303 c166 166 307 302 312 302 6 0 49 -38 95
-85 l85 -85 -455 -455 -455 -454 -67 -1 -68 0 0 936 0 936 858 858 857 858
918 1 917 1 0 -950z m7540 -313 l0 -1263 -491 -493 -492 -492 -71 67 c-39 37
-80 76 -91 86 -19 18 -12 25 438 476 l457 457 -2 998 -3 997 -1561 -1560
-1562 -1560 -86 0 -86 0 0 540 0 540 125 0 125 0 2 -320 3 -320 1435 1435
1435 1435 -647 0 -647 0 -178 -167 c-98 -91 -223 -207 -278 -257 -55 -49 -192
-176 -305 -282 -410 -383 -688 -641 -776 -721 l-90 -82 -84 91 -84 91 59 55
c33 30 179 166 324 301 146 135 376 350 512 476 279 260 505 470 677 627 l117
108 913 0 912 0 0 -1263z m8550 -537 l0 -1770 -1775 0 -1775 0 0 911 0 911
858 858 857 858 918 1 917 1 0 -1770z m-2023 1743 c4 -10 -2 -23 -18 -35 -13
-10 -743 -738 -1622 -1616 l-1598 -1597 736 -3 735 -2 0 -120 0 -120 -970 0
-970 0 -22 45 -22 46 1709 1709 1710 1710 163 0 c142 0 163 -2 169 -17z"/>
<path d="M4250 2997 c0 -287 3 -978 7 -1535 l6 -1012 1524 0 1523 0 0 1535 0
1535 -1530 0 -1530 0 0 -523z"/>
<path d="M17372 2687 l-792 -792 0 -738 0 -737 1525 0 1525 0 0 1530 0 1530
-733 0 -732 0 -793 -793z"/>
</g>
</svg>
